# MagicaVoxel @ Ephtracy

# group
g Lift

# material
mtllib Lift.mtl
usemtl palette

# normals
vn -1 0 0
vn 1 0 0
vn 0 0 1
vn 0 0 -1
vn 0 -1 0
vn 0 1 0

# texcoords
vt 0.970703 0.5
vt 0.982422 0.5
vt 0.994141 0.5

# verts
v -9 1 9
v -9 1 8
v -9 5 9
v -9 5 8
v -8 2 8
v -8 2 -7
v -8 3 -6
v -8 3 -7
v -8 4 8
v -8 4 -6
v -7 2 10
v -7 2 9
v -7 2 -7
v -7 2 -8
v -7 3 -6
v -7 3 -7
v -7 3 -8
v -7 4 10
v -7 4 9
v -7 4 -6
v -7 4 -7
v 4 2 9
v 4 2 8
v 4 2 -7
v 4 3 -6
v 4 3 -7
v 4 4 9
v 4 4 8
v 4 4 -6
v 5 2 10
v 5 2 9
v 5 2 -7
v 5 2 -8
v 5 3 -6
v 5 3 -7
v 5 3 -8
v 5 4 10
v 5 4 9
v 5 4 -6
v 5 4 -7
v -5 2 10
v -5 2 9
v -5 2 -7
v -5 2 -8
v -5 3 -6
v -5 3 -7
v -5 3 -8
v -5 4 10
v -5 4 9
v -5 4 -6
v -5 4 -7
v -4 2 9
v -4 2 8
v -4 2 -7
v -4 3 -6
v -4 3 -7
v -4 4 9
v -4 4 8
v -4 4 -6
v 7 2 10
v 7 2 9
v 7 2 -7
v 7 2 -8
v 7 3 -6
v 7 3 -7
v 7 3 -8
v 7 4 10
v 7 4 9
v 7 4 -6
v 7 4 -7
v 8 2 8
v 8 2 -7
v 8 3 -6
v 8 3 -7
v 8 4 8
v 8 4 -6
v 9 1 9
v 9 1 8
v 9 5 9
v 9 5 8
v -7 2 10
v -7 4 10
v -5 2 10
v -5 4 10
v 5 2 10
v 5 4 10
v 7 2 10
v 7 4 10
v -9 1 9
v -9 5 9
v -8 2 9
v -8 4 9
v -7 2 9
v -7 4 9
v -5 2 9
v -5 4 9
v -4 2 9
v -4 4 9
v 4 2 9
v 4 4 9
v 5 2 9
v 5 4 9
v 7 2 9
v 7 4 9
v 8 2 9
v 8 4 9
v 9 1 9
v 9 5 9
v -9 1 8
v -9 5 8
v -8 2 8
v -8 4 8
v -7 2 8
v -7 4 8
v -6 2 8
v -5 4 8
v -4 2 8
v -4 4 8
v 4 2 8
v 4 4 8
v 5 4 8
v 6 2 8
v 7 2 8
v 7 4 8
v 8 2 8
v 8 4 8
v 9 1 8
v 9 5 8
v -8 3 -6
v -8 4 -6
v -7 3 -6
v -7 4 -6
v -5 3 -6
v -5 4 -6
v -4 3 -6
v -4 4 -6
v 4 3 -6
v 4 4 -6
v 5 3 -6
v 5 4 -6
v 7 3 -6
v 7 4 -6
v 8 3 -6
v 8 4 -6
v -8 2 -7
v -8 3 -7
v -7 2 -7
v -7 3 -7
v -7 4 -7
v -5 2 -7
v -5 3 -7
v -5 4 -7
v -4 2 -7
v -4 3 -7
v 4 2 -7
v 4 3 -7
v 5 2 -7
v 5 3 -7
v 5 4 -7
v 7 2 -7
v 7 3 -7
v 7 4 -7
v 8 2 -7
v 8 3 -7
v -7 2 -8
v -7 3 -8
v -5 2 -8
v -5 3 -8
v 5 2 -8
v 5 3 -8
v 7 2 -8
v 7 3 -8
v -9 1 9
v 9 1 9
v -9 1 8
v 9 1 8
v -7 2 10
v -5 2 10
v 5 2 10
v 7 2 10
v -7 2 9
v -5 2 9
v 5 2 9
v 7 2 9
v -8 2 8
v -7 2 8
v -6 2 8
v -4 2 8
v 4 2 8
v 6 2 8
v 7 2 8
v 8 2 8
v -8 2 -7
v -7 2 -7
v -6 2 -7
v -5 2 -7
v -4 2 -7
v 4 2 -7
v 5 2 -7
v 6 2 -7
v 7 2 -7
v 8 2 -7
v -7 2 -8
v -5 2 -8
v 5 2 -8
v 7 2 -8
v -4 4 9
v 4 4 9
v -4 4 8
v 4 4 8
v -4 2 9
v 4 2 9
v -4 2 8
v 4 2 8
v -8 3 -6
v -7 3 -6
v -5 3 -6
v -4 3 -6
v 4 3 -6
v 5 3 -6
v 7 3 -6
v 8 3 -6
v -8 3 -7
v -7 3 -7
v -5 3 -7
v -4 3 -7
v 4 3 -7
v 5 3 -7
v 7 3 -7
v 8 3 -7
v -7 3 -8
v -5 3 -8
v 5 3 -8
v 7 3 -8
v -7 4 10
v -5 4 10
v 5 4 10
v 7 4 10
v -7 4 9
v -5 4 9
v 5 4 9
v 7 4 9
v -8 4 8
v -7 4 8
v -5 4 8
v -4 4 8
v 4 4 8
v 5 4 8
v 7 4 8
v 8 4 8
v -8 4 -6
v -7 4 -6
v -5 4 -6
v -4 4 -6
v 4 4 -6
v 5 4 -6
v 7 4 -6
v 8 4 -6
v -7 4 -7
v -5 4 -7
v 5 4 -7
v 7 4 -7
v -9 5 9
v 9 5 9
v -9 5 8
v 9 5 8

# faces
f 3/3/1 2/3/1 1/3/1
f 4/3/1 2/3/1 3/3/1
f 7/1/1 6/1/1 5/1/1
f 8/1/1 6/1/1 7/1/1
f 9/1/1 7/1/1 5/1/1
f 10/1/1 7/1/1 9/1/1
f 16/1/1 14/1/1 13/1/1
f 17/1/1 14/1/1 16/1/1
f 18/2/1 12/2/1 11/2/1
f 19/2/1 12/2/1 18/2/1
f 20/1/1 16/1/1 15/1/1
f 21/1/1 16/1/1 20/1/1
f 25/1/1 23/1/1 22/1/1
f 25/1/1 24/1/1 23/1/1
f 26/1/1 24/1/1 25/1/1
f 27/1/1 25/1/1 22/1/1
f 28/1/1 25/1/1 27/1/1
f 29/1/1 25/1/1 28/1/1
f 35/1/1 33/1/1 32/1/1
f 36/1/1 33/1/1 35/1/1
f 37/2/1 31/2/1 30/2/1
f 38/2/1 31/2/1 37/2/1
f 39/1/1 35/1/1 34/1/1
f 40/1/1 35/1/1 39/1/1
f 43/1/2 44/1/2 46/1/2
f 46/1/2 44/1/2 47/1/2
f 41/2/2 42/2/2 48/2/2
f 48/2/2 42/2/2 49/2/2
f 45/1/2 46/1/2 50/1/2
f 50/1/2 46/1/2 51/1/2
f 52/1/2 53/1/2 55/1/2
f 53/1/2 54/1/2 55/1/2
f 55/1/2 54/1/2 56/1/2
f 52/1/2 55/1/2 57/1/2
f 57/1/2 55/1/2 58/1/2
f 58/1/2 55/1/2 59/1/2
f 62/1/2 63/1/2 65/1/2
f 65/1/2 63/1/2 66/1/2
f 60/2/2 61/2/2 67/2/2
f 67/2/2 61/2/2 68/2/2
f 64/1/2 65/1/2 69/1/2
f 69/1/2 65/1/2 70/1/2
f 71/1/2 72/1/2 73/1/2
f 73/1/2 72/1/2 74/1/2
f 71/1/2 73/1/2 75/1/2
f 75/1/2 73/1/2 76/1/2
f 77/3/2 78/3/2 79/3/2
f 79/3/2 78/3/2 80/3/2
f 83/2/3 82/2/3 81/2/3
f 84/2/3 82/2/3 83/2/3
f 87/2/3 86/2/3 85/2/3
f 88/2/3 86/2/3 87/2/3
f 91/3/3 90/3/3 89/3/3
f 92/3/3 90/3/3 91/3/3
f 93/3/3 91/3/3 89/3/3
f 93/1/3 92/1/3 91/1/3
f 94/3/3 90/3/3 92/3/3
f 94/1/3 92/1/3 93/1/3
f 95/3/3 93/3/3 89/3/3
f 96/3/3 90/3/3 94/3/3
f 97/3/3 95/3/3 89/3/3
f 97/1/3 96/1/3 95/1/3
f 98/3/3 90/3/3 96/3/3
f 98/1/3 96/1/3 97/1/3
f 99/3/3 97/3/3 89/3/3
f 100/3/3 90/3/3 98/3/3
f 101/3/3 99/3/3 89/3/3
f 101/1/3 100/1/3 99/1/3
f 102/3/3 90/3/3 100/3/3
f 102/1/3 100/1/3 101/1/3
f 103/3/3 101/3/3 89/3/3
f 104/3/3 90/3/3 102/3/3
f 105/3/3 103/3/3 89/3/3
f 105/1/3 104/1/3 103/1/3
f 106/3/3 90/3/3 104/3/3
f 106/1/3 104/1/3 105/1/3
f 107/3/3 105/3/3 89/3/3
f 107/3/3 106/3/3 105/3/3
f 108/3/3 90/3/3 106/3/3
f 108/3/3 106/3/3 107/3/3
f 109/3/4 110/3/4 111/3/4
f 111/3/4 110/3/4 112/3/4
f 109/3/4 111/3/4 113/3/4
f 112/3/4 110/3/4 114/3/4
f 109/3/4 113/3/4 115/3/4
f 114/3/4 110/3/4 116/3/4
f 109/3/4 115/3/4 117/3/4
f 116/3/4 110/3/4 118/3/4
f 109/3/4 117/3/4 119/3/4
f 118/3/4 110/3/4 120/3/4
f 120/3/4 110/3/4 121/3/4
f 109/3/4 119/3/4 122/3/4
f 109/3/4 122/3/4 123/3/4
f 121/3/4 110/3/4 124/3/4
f 109/3/4 123/3/4 125/3/4
f 124/3/4 110/3/4 126/3/4
f 109/3/4 125/3/4 127/3/4
f 125/3/4 126/3/4 127/3/4
f 126/3/4 110/3/4 128/3/4
f 127/3/4 126/3/4 128/3/4
f 129/1/4 130/1/4 131/1/4
f 131/1/4 130/1/4 132/1/4
f 133/1/4 134/1/4 135/1/4
f 135/1/4 134/1/4 136/1/4
f 137/1/4 138/1/4 139/1/4
f 139/1/4 138/1/4 140/1/4
f 141/1/4 142/1/4 143/1/4
f 143/1/4 142/1/4 144/1/4
f 145/1/4 146/1/4 147/1/4
f 147/1/4 146/1/4 148/1/4
f 148/1/4 149/1/4 151/1/4
f 151/1/4 149/1/4 152/1/4
f 150/1/4 151/1/4 153/1/4
f 153/1/4 151/1/4 154/1/4
f 155/1/4 156/1/4 157/1/4
f 157/1/4 156/1/4 158/1/4
f 158/1/4 159/1/4 161/1/4
f 161/1/4 159/1/4 162/1/4
f 160/1/4 161/1/4 163/1/4
f 163/1/4 161/1/4 164/1/4
f 165/1/4 166/1/4 167/1/4
f 167/1/4 166/1/4 168/1/4
f 169/1/4 170/1/4 171/1/4
f 171/1/4 170/1/4 172/1/4
f 175/3/5 174/3/5 173/3/5
f 176/3/5 174/3/5 175/3/5
f 181/2/5 178/2/5 177/2/5
f 182/2/5 178/2/5 181/2/5
f 183/2/5 180/2/5 179/2/5
f 184/2/5 180/2/5 183/2/5
f 193/1/5 186/1/5 185/1/5
f 194/2/5 187/2/5 186/2/5
f 194/1/5 186/1/5 193/1/5
f 195/1/5 188/1/5 187/1/5
f 195/2/5 187/2/5 194/2/5
f 196/1/5 188/1/5 195/1/5
f 197/1/5 188/1/5 196/1/5
f 198/1/5 190/1/5 189/1/5
f 199/1/5 190/1/5 198/1/5
f 200/2/5 191/2/5 190/2/5
f 200/1/5 190/1/5 199/1/5
f 201/1/5 192/1/5 191/1/5
f 201/2/5 191/2/5 200/2/5
f 202/1/5 192/1/5 201/1/5
f 203/1/5 195/1/5 194/1/5
f 203/1/5 196/1/5 195/1/5
f 204/1/5 196/1/5 203/1/5
f 205/1/5 200/1/5 199/1/5
f 205/1/5 201/1/5 200/1/5
f 206/1/5 201/1/5 205/1/5
f 209/3/5 208/3/5 207/3/5
f 210/3/5 208/3/5 209/3/5
f 211/3/6 212/3/6 213/3/6
f 213/3/6 212/3/6 214/3/6
f 215/1/6 216/1/6 223/1/6
f 223/1/6 216/1/6 224/1/6
f 217/1/6 218/1/6 225/1/6
f 225/1/6 218/1/6 226/1/6
f 219/1/6 220/1/6 227/1/6
f 227/1/6 220/1/6 228/1/6
f 221/1/6 222/1/6 229/1/6
f 229/1/6 222/1/6 230/1/6
f 224/1/6 225/1/6 231/1/6
f 231/1/6 225/1/6 232/1/6
f 228/1/6 229/1/6 233/1/6
f 233/1/6 229/1/6 234/1/6
f 235/2/6 236/2/6 239/2/6
f 239/2/6 236/2/6 240/2/6
f 237/2/6 238/2/6 241/2/6
f 241/2/6 238/2/6 242/2/6
f 243/1/6 244/1/6 251/1/6
f 244/2/6 245/2/6 252/2/6
f 251/1/6 244/1/6 252/1/6
f 245/1/6 246/1/6 253/1/6
f 252/2/6 245/2/6 253/2/6
f 253/1/6 246/1/6 254/1/6
f 247/1/6 248/1/6 255/1/6
f 248/2/6 249/2/6 256/2/6
f 255/1/6 248/1/6 256/1/6
f 249/1/6 250/1/6 257/1/6
f 256/2/6 249/2/6 257/2/6
f 257/1/6 250/1/6 258/1/6
f 252/1/6 253/1/6 259/1/6
f 259/1/6 253/1/6 260/1/6
f 256/1/6 257/1/6 261/1/6
f 261/1/6 257/1/6 262/1/6
f 263/3/6 264/3/6 265/3/6
f 265/3/6 264/3/6 266/3/6
