# MagicaVoxel @ Ephtracy

# group
g Floor_Input_Edge

# material
mtllib Floor_Input_Edge.mtl
usemtl palette

# normals
vn -1 0 0
vn 1 0 0
vn 0 0 1
vn 0 0 -1
vn 0 -1 0
vn 0 1 0

# texcoords
vt 0.0214844 0.5
vt 0.982422 0.5
vt 0.986328 0.5
vt 0.994141 0.5

# verts
v -20 0 20
v -20 0 19
v -20 0 17
v -20 0 16
v -20 0 15
v -20 0 -20
v -20 1 20
v -20 1 19
v -20 1 17
v -20 1 16
v -20 1 15
v -20 1 -20
v 20 0 20
v 20 0 18
v 20 0 16
v 20 0 15
v 20 0 -20
v 20 1 20
v 20 1 18
v 20 1 16
v 20 1 15
v 20 1 -20
v -20 0 20
v -20 1 20
v -18 0 20
v -18 1 20
v -16 0 20
v -16 1 20
v -14 0 20
v -14 1 20
v -12 0 20
v -12 1 20
v -10 0 20
v -10 1 20
v -8 0 20
v -8 1 20
v -6 0 20
v -6 1 20
v -4 0 20
v -4 1 20
v -2 0 20
v -2 1 20
v 0 0 20
v 0 1 20
v 2 0 20
v 2 1 20
v 4 0 20
v 4 1 20
v 6 0 20
v 6 1 20
v 8 0 20
v 8 1 20
v 10 0 20
v 10 1 20
v 12 0 20
v 12 1 20
v 14 0 20
v 14 1 20
v 16 0 20
v 16 1 20
v 18 0 20
v 18 1 20
v 20 0 20
v 20 1 20
v -20 0 -20
v -20 1 -20
v 20 0 -20
v 20 1 -20
v -20 0 20
v -18 0 20
v -16 0 20
v -14 0 20
v -12 0 20
v -10 0 20
v -8 0 20
v -6 0 20
v -4 0 20
v -2 0 20
v 0 0 20
v 2 0 20
v 4 0 20
v 6 0 20
v 8 0 20
v 10 0 20
v 12 0 20
v 14 0 20
v 16 0 20
v 18 0 20
v 20 0 20
v -20 0 19
v -19 0 19
v -18 0 19
v -17 0 19
v -16 0 19
v -15 0 19
v -14 0 19
v -13 0 19
v -12 0 19
v -11 0 19
v -10 0 19
v -9 0 19
v -8 0 19
v -7 0 19
v -6 0 19
v -5 0 19
v -4 0 19
v -3 0 19
v -2 0 19
v -1 0 19
v 0 0 19
v 1 0 19
v 2 0 19
v 3 0 19
v 4 0 19
v 5 0 19
v 6 0 19
v 7 0 19
v 8 0 19
v 9 0 19
v 10 0 19
v 11 0 19
v 12 0 19
v 13 0 19
v 14 0 19
v 15 0 19
v 16 0 19
v 17 0 19
v 18 0 19
v 19 0 19
v -19 0 18
v -18 0 18
v -17 0 18
v -16 0 18
v -15 0 18
v -14 0 18
v -13 0 18
v -12 0 18
v -11 0 18
v -10 0 18
v -9 0 18
v -8 0 18
v -7 0 18
v -6 0 18
v -5 0 18
v -4 0 18
v -3 0 18
v -2 0 18
v -1 0 18
v 0 0 18
v 1 0 18
v 2 0 18
v 3 0 18
v 4 0 18
v 5 0 18
v 6 0 18
v 7 0 18
v 8 0 18
v 9 0 18
v 10 0 18
v 11 0 18
v 12 0 18
v 13 0 18
v 14 0 18
v 15 0 18
v 16 0 18
v 17 0 18
v 18 0 18
v 19 0 18
v 20 0 18
v -20 0 17
v -19 0 17
v -18 0 17
v -17 0 17
v -16 0 17
v -15 0 17
v -14 0 17
v -13 0 17
v -12 0 17
v -11 0 17
v -10 0 17
v -9 0 17
v -8 0 17
v -7 0 17
v -6 0 17
v -5 0 17
v -4 0 17
v -3 0 17
v -2 0 17
v -1 0 17
v 0 0 17
v 1 0 17
v 2 0 17
v 3 0 17
v 4 0 17
v 5 0 17
v 6 0 17
v 7 0 17
v 8 0 17
v 9 0 17
v 10 0 17
v 11 0 17
v 12 0 17
v 13 0 17
v 14 0 17
v 15 0 17
v 16 0 17
v 17 0 17
v 18 0 17
v 19 0 17
v -20 0 16
v -19 0 16
v -17 0 16
v -15 0 16
v -13 0 16
v -11 0 16
v -9 0 16
v -7 0 16
v -5 0 16
v -3 0 16
v -1 0 16
v 1 0 16
v 3 0 16
v 5 0 16
v 7 0 16
v 9 0 16
v 11 0 16
v 13 0 16
v 15 0 16
v 17 0 16
v 19 0 16
v 20 0 16
v -20 0 15
v 20 0 15
v -20 0 -20
v 20 0 -20
v -20 1 20
v -18 1 20
v -16 1 20
v -14 1 20
v -12 1 20
v -10 1 20
v -8 1 20
v -6 1 20
v -4 1 20
v -2 1 20
v 0 1 20
v 2 1 20
v 4 1 20
v 6 1 20
v 8 1 20
v 10 1 20
v 12 1 20
v 14 1 20
v 16 1 20
v 18 1 20
v 20 1 20
v -20 1 19
v -19 1 19
v -18 1 19
v -17 1 19
v -16 1 19
v -15 1 19
v -14 1 19
v -13 1 19
v -12 1 19
v -11 1 19
v -10 1 19
v -9 1 19
v -8 1 19
v -7 1 19
v -6 1 19
v -5 1 19
v -4 1 19
v -3 1 19
v -2 1 19
v -1 1 19
v 0 1 19
v 1 1 19
v 2 1 19
v 3 1 19
v 4 1 19
v 5 1 19
v 6 1 19
v 7 1 19
v 8 1 19
v 9 1 19
v 10 1 19
v 11 1 19
v 12 1 19
v 13 1 19
v 14 1 19
v 15 1 19
v 16 1 19
v 17 1 19
v 18 1 19
v 19 1 19
v -19 1 18
v -18 1 18
v -17 1 18
v -16 1 18
v -15 1 18
v -14 1 18
v -13 1 18
v -12 1 18
v -11 1 18
v -10 1 18
v -9 1 18
v -8 1 18
v -7 1 18
v -6 1 18
v -5 1 18
v -4 1 18
v -3 1 18
v -2 1 18
v -1 1 18
v 0 1 18
v 1 1 18
v 2 1 18
v 3 1 18
v 4 1 18
v 5 1 18
v 6 1 18
v 7 1 18
v 8 1 18
v 9 1 18
v 10 1 18
v 11 1 18
v 12 1 18
v 13 1 18
v 14 1 18
v 15 1 18
v 16 1 18
v 17 1 18
v 18 1 18
v 19 1 18
v 20 1 18
v -20 1 17
v -19 1 17
v -18 1 17
v -17 1 17
v -16 1 17
v -15 1 17
v -14 1 17
v -13 1 17
v -12 1 17
v -11 1 17
v -10 1 17
v -9 1 17
v -8 1 17
v -7 1 17
v -6 1 17
v -5 1 17
v -4 1 17
v -3 1 17
v -2 1 17
v -1 1 17
v 0 1 17
v 1 1 17
v 2 1 17
v 3 1 17
v 4 1 17
v 5 1 17
v 6 1 17
v 7 1 17
v 8 1 17
v 9 1 17
v 10 1 17
v 11 1 17
v 12 1 17
v 13 1 17
v 14 1 17
v 15 1 17
v 16 1 17
v 17 1 17
v 18 1 17
v 19 1 17
v -20 1 16
v -19 1 16
v -17 1 16
v -15 1 16
v -13 1 16
v -11 1 16
v -9 1 16
v -7 1 16
v -5 1 16
v -3 1 16
v -1 1 16
v 1 1 16
v 3 1 16
v 5 1 16
v 7 1 16
v 9 1 16
v 11 1 16
v 13 1 16
v 15 1 16
v 17 1 16
v 19 1 16
v 20 1 16
v -20 1 15
v 20 1 15
v -20 1 -20
v 20 1 -20

# faces
f 7/1/1 2/1/1 1/1/1
f 8/4/1 3/4/1 2/4/1
f 8/1/1 2/1/1 7/1/1
f 9/1/1 4/1/1 3/1/1
f 9/4/1 3/4/1 8/4/1
f 10/3/1 5/3/1 4/3/1
f 10/1/1 4/1/1 9/1/1
f 11/2/1 6/2/1 5/2/1
f 11/3/1 5/3/1 10/3/1
f 12/2/1 6/2/1 11/2/1
f 13/4/2 14/4/2 18/4/2
f 14/1/2 15/1/2 19/1/2
f 18/4/2 14/4/2 19/4/2
f 15/3/2 16/3/2 20/3/2
f 19/1/2 15/1/2 20/1/2
f 16/2/2 17/2/2 21/2/2
f 20/3/2 16/3/2 21/3/2
f 21/2/2 17/2/2 22/2/2
f 25/1/3 24/1/3 23/1/3
f 26/1/3 24/1/3 25/1/3
f 27/4/3 26/4/3 25/4/3
f 28/4/3 26/4/3 27/4/3
f 29/1/3 28/1/3 27/1/3
f 30/1/3 28/1/3 29/1/3
f 31/4/3 30/4/3 29/4/3
f 32/4/3 30/4/3 31/4/3
f 33/1/3 32/1/3 31/1/3
f 34/1/3 32/1/3 33/1/3
f 35/4/3 34/4/3 33/4/3
f 36/4/3 34/4/3 35/4/3
f 37/1/3 36/1/3 35/1/3
f 38/1/3 36/1/3 37/1/3
f 39/4/3 38/4/3 37/4/3
f 40/4/3 38/4/3 39/4/3
f 41/1/3 40/1/3 39/1/3
f 42/1/3 40/1/3 41/1/3
f 43/4/3 42/4/3 41/4/3
f 44/4/3 42/4/3 43/4/3
f 45/1/3 44/1/3 43/1/3
f 46/1/3 44/1/3 45/1/3
f 47/4/3 46/4/3 45/4/3
f 48/4/3 46/4/3 47/4/3
f 49/1/3 48/1/3 47/1/3
f 50/1/3 48/1/3 49/1/3
f 51/4/3 50/4/3 49/4/3
f 52/4/3 50/4/3 51/4/3
f 53/1/3 52/1/3 51/1/3
f 54/1/3 52/1/3 53/1/3
f 55/4/3 54/4/3 53/4/3
f 56/4/3 54/4/3 55/4/3
f 57/1/3 56/1/3 55/1/3
f 58/1/3 56/1/3 57/1/3
f 59/4/3 58/4/3 57/4/3
f 60/4/3 58/4/3 59/4/3
f 61/1/3 60/1/3 59/1/3
f 62/1/3 60/1/3 61/1/3
f 63/4/3 62/4/3 61/4/3
f 64/4/3 62/4/3 63/4/3
f 65/2/4 66/2/4 67/2/4
f 67/2/4 66/2/4 68/2/4
f 90/1/5 70/1/5 69/1/5
f 91/1/5 70/1/5 90/1/5
f 92/4/5 71/4/5 70/4/5
f 92/1/5 70/1/5 91/1/5
f 93/4/5 71/4/5 92/4/5
f 94/1/5 72/1/5 71/1/5
f 94/4/5 71/4/5 93/4/5
f 95/1/5 72/1/5 94/1/5
f 96/4/5 73/4/5 72/4/5
f 96/1/5 72/1/5 95/1/5
f 97/4/5 73/4/5 96/4/5
f 98/1/5 74/1/5 73/1/5
f 98/4/5 73/4/5 97/4/5
f 99/1/5 74/1/5 98/1/5
f 100/4/5 75/4/5 74/4/5
f 100/1/5 74/1/5 99/1/5
f 101/4/5 75/4/5 100/4/5
f 102/1/5 76/1/5 75/1/5
f 102/4/5 75/4/5 101/4/5
f 103/1/5 76/1/5 102/1/5
f 104/4/5 77/4/5 76/4/5
f 104/1/5 76/1/5 103/1/5
f 105/4/5 77/4/5 104/4/5
f 106/1/5 78/1/5 77/1/5
f 106/4/5 77/4/5 105/4/5
f 107/1/5 78/1/5 106/1/5
f 108/4/5 79/4/5 78/4/5
f 108/1/5 78/1/5 107/1/5
f 109/4/5 79/4/5 108/4/5
f 110/1/5 80/1/5 79/1/5
f 110/4/5 79/4/5 109/4/5
f 111/1/5 80/1/5 110/1/5
f 112/4/5 81/4/5 80/4/5
f 112/1/5 80/1/5 111/1/5
f 113/4/5 81/4/5 112/4/5
f 114/1/5 82/1/5 81/1/5
f 114/4/5 81/4/5 113/4/5
f 115/1/5 82/1/5 114/1/5
f 116/4/5 83/4/5 82/4/5
f 116/1/5 82/1/5 115/1/5
f 117/4/5 83/4/5 116/4/5
f 118/1/5 84/1/5 83/1/5
f 118/4/5 83/4/5 117/4/5
f 119/1/5 84/1/5 118/1/5
f 120/4/5 85/4/5 84/4/5
f 120/1/5 84/1/5 119/1/5
f 121/4/5 85/4/5 120/4/5
f 122/1/5 86/1/5 85/1/5
f 122/4/5 85/4/5 121/4/5
f 123/1/5 86/1/5 122/1/5
f 124/4/5 87/4/5 86/4/5
f 124/1/5 86/1/5 123/1/5
f 125/4/5 87/4/5 124/4/5
f 126/1/5 88/1/5 87/1/5
f 126/4/5 87/4/5 125/4/5
f 127/1/5 88/1/5 126/1/5
f 128/4/5 89/4/5 88/4/5
f 128/1/5 88/1/5 127/1/5
f 129/4/5 89/4/5 128/4/5
f 130/4/5 91/4/5 90/4/5
f 130/1/5 93/1/5 92/1/5
f 130/1/5 92/1/5 91/1/5
f 131/1/5 93/1/5 130/1/5
f 132/4/5 95/4/5 94/4/5
f 132/1/5 93/1/5 131/1/5
f 132/4/5 94/4/5 93/4/5
f 133/4/5 95/4/5 132/4/5
f 134/1/5 97/1/5 96/1/5
f 134/4/5 95/4/5 133/4/5
f 134/1/5 96/1/5 95/1/5
f 135/1/5 97/1/5 134/1/5
f 136/4/5 99/4/5 98/4/5
f 136/1/5 97/1/5 135/1/5
f 136/4/5 98/4/5 97/4/5
f 137/4/5 99/4/5 136/4/5
f 138/1/5 101/1/5 100/1/5
f 138/4/5 99/4/5 137/4/5
f 138/1/5 100/1/5 99/1/5
f 139/1/5 101/1/5 138/1/5
f 140/4/5 103/4/5 102/4/5
f 140/1/5 101/1/5 139/1/5
f 140/4/5 102/4/5 101/4/5
f 141/4/5 103/4/5 140/4/5
f 142/1/5 105/1/5 104/1/5
f 142/4/5 103/4/5 141/4/5
f 142/1/5 104/1/5 103/1/5
f 143/1/5 105/1/5 142/1/5
f 144/4/5 107/4/5 106/4/5
f 144/1/5 105/1/5 143/1/5
f 144/4/5 106/4/5 105/4/5
f 145/4/5 107/4/5 144/4/5
f 146/1/5 109/1/5 108/1/5
f 146/4/5 107/4/5 145/4/5
f 146/1/5 108/1/5 107/1/5
f 147/1/5 109/1/5 146/1/5
f 148/4/5 111/4/5 110/4/5
f 148/1/5 109/1/5 147/1/5
f 148/4/5 110/4/5 109/4/5
f 149/4/5 111/4/5 148/4/5
f 150/1/5 113/1/5 112/1/5
f 150/4/5 111/4/5 149/4/5
f 150/1/5 112/1/5 111/1/5
f 151/1/5 113/1/5 150/1/5
f 152/4/5 115/4/5 114/4/5
f 152/1/5 113/1/5 151/1/5
f 152/4/5 114/4/5 113/4/5
f 153/4/5 115/4/5 152/4/5
f 154/1/5 117/1/5 116/1/5
f 154/4/5 115/4/5 153/4/5
f 154/1/5 116/1/5 115/1/5
f 155/1/5 117/1/5 154/1/5
f 156/4/5 119/4/5 118/4/5
f 156/1/5 117/1/5 155/1/5
f 156/4/5 118/4/5 117/4/5
f 157/4/5 119/4/5 156/4/5
f 158/1/5 121/1/5 120/1/5
f 158/4/5 119/4/5 157/4/5
f 158/1/5 120/1/5 119/1/5
f 159/1/5 121/1/5 158/1/5
f 160/4/5 123/4/5 122/4/5
f 160/1/5 121/1/5 159/1/5
f 160/4/5 122/4/5 121/4/5
f 161/4/5 123/4/5 160/4/5
f 162/1/5 125/1/5 124/1/5
f 162/4/5 123/4/5 161/4/5
f 162/1/5 124/1/5 123/1/5
f 163/1/5 125/1/5 162/1/5
f 164/4/5 127/4/5 126/4/5
f 164/1/5 125/1/5 163/1/5
f 164/4/5 126/4/5 125/4/5
f 165/4/5 127/4/5 164/4/5
f 166/1/5 129/1/5 128/1/5
f 166/4/5 127/4/5 165/4/5
f 166/1/5 128/1/5 127/1/5
f 167/1/5 129/1/5 166/1/5
f 168/4/5 89/4/5 129/4/5
f 168/1/5 129/1/5 167/1/5
f 169/4/5 89/4/5 168/4/5
f 170/4/5 131/4/5 130/4/5
f 170/4/5 130/4/5 90/4/5
f 171/4/5 131/4/5 170/4/5
f 172/1/5 133/1/5 132/1/5
f 172/4/5 131/4/5 171/4/5
f 172/1/5 132/1/5 131/1/5
f 173/1/5 133/1/5 172/1/5
f 174/4/5 135/4/5 134/4/5
f 174/1/5 133/1/5 173/1/5
f 174/4/5 134/4/5 133/4/5
f 175/4/5 135/4/5 174/4/5
f 176/1/5 137/1/5 136/1/5
f 176/4/5 135/4/5 175/4/5
f 176/1/5 136/1/5 135/1/5
f 177/1/5 137/1/5 176/1/5
f 178/4/5 139/4/5 138/4/5
f 178/1/5 137/1/5 177/1/5
f 178/4/5 138/4/5 137/4/5
f 179/4/5 139/4/5 178/4/5
f 180/1/5 141/1/5 140/1/5
f 180/4/5 139/4/5 179/4/5
f 180/1/5 140/1/5 139/1/5
f 181/1/5 141/1/5 180/1/5
f 182/4/5 143/4/5 142/4/5
f 182/1/5 141/1/5 181/1/5
f 182/4/5 142/4/5 141/4/5
f 183/4/5 143/4/5 182/4/5
f 184/1/5 145/1/5 144/1/5
f 184/4/5 143/4/5 183/4/5
f 184/1/5 144/1/5 143/1/5
f 185/1/5 145/1/5 184/1/5
f 186/4/5 147/4/5 146/4/5
f 186/1/5 145/1/5 185/1/5
f 186/4/5 146/4/5 145/4/5
f 187/4/5 147/4/5 186/4/5
f 188/1/5 149/1/5 148/1/5
f 188/4/5 147/4/5 187/4/5
f 188/1/5 148/1/5 147/1/5
f 189/1/5 149/1/5 188/1/5
f 190/4/5 151/4/5 150/4/5
f 190/1/5 149/1/5 189/1/5
f 190/4/5 150/4/5 149/4/5
f 191/4/5 151/4/5 190/4/5
f 192/1/5 153/1/5 152/1/5
f 192/4/5 151/4/5 191/4/5
f 192/1/5 152/1/5 151/1/5
f 193/1/5 153/1/5 192/1/5
f 194/4/5 155/4/5 154/4/5
f 194/1/5 153/1/5 193/1/5
f 194/4/5 154/4/5 153/4/5
f 195/4/5 155/4/5 194/4/5
f 196/1/5 157/1/5 156/1/5
f 196/4/5 155/4/5 195/4/5
f 196/1/5 156/1/5 155/1/5
f 197/1/5 157/1/5 196/1/5
f 198/4/5 159/4/5 158/4/5
f 198/1/5 157/1/5 197/1/5
f 198/4/5 158/4/5 157/4/5
f 199/4/5 159/4/5 198/4/5
f 200/1/5 161/1/5 160/1/5
f 200/4/5 159/4/5 199/4/5
f 200/1/5 160/1/5 159/1/5
f 201/1/5 161/1/5 200/1/5
f 202/4/5 163/4/5 162/4/5
f 202/1/5 161/1/5 201/1/5
f 202/4/5 162/4/5 161/4/5
f 203/4/5 163/4/5 202/4/5
f 204/1/5 165/1/5 164/1/5
f 204/4/5 163/4/5 203/4/5
f 204/1/5 164/1/5 163/1/5
f 205/1/5 165/1/5 204/1/5
f 206/4/5 167/4/5 166/4/5
f 206/1/5 165/1/5 205/1/5
f 206/4/5 166/4/5 165/4/5
f 207/4/5 167/4/5 206/4/5
f 208/1/5 169/1/5 168/1/5
f 208/4/5 167/4/5 207/4/5
f 208/1/5 168/1/5 167/1/5
f 209/1/5 169/1/5 208/1/5
f 210/1/5 171/1/5 170/1/5
f 211/4/5 173/4/5 172/4/5
f 211/1/5 171/1/5 210/1/5
f 211/4/5 172/4/5 171/4/5
f 212/1/5 175/1/5 174/1/5
f 212/4/5 173/4/5 211/4/5
f 212/1/5 174/1/5 173/1/5
f 213/4/5 177/4/5 176/4/5
f 213/1/5 175/1/5 212/1/5
f 213/4/5 176/4/5 175/4/5
f 214/1/5 179/1/5 178/1/5
f 214/4/5 177/4/5 213/4/5
f 214/1/5 178/1/5 177/1/5
f 215/4/5 181/4/5 180/4/5
f 215/1/5 179/1/5 214/1/5
f 215/4/5 180/4/5 179/4/5
f 216/1/5 183/1/5 182/1/5
f 216/4/5 181/4/5 215/4/5
f 216/1/5 182/1/5 181/1/5
f 217/4/5 185/4/5 184/4/5
f 217/1/5 183/1/5 216/1/5
f 217/4/5 184/4/5 183/4/5
f 218/1/5 187/1/5 186/1/5
f 218/4/5 185/4/5 217/4/5
f 218/1/5 186/1/5 185/1/5
f 219/4/5 189/4/5 188/4/5
f 219/1/5 187/1/5 218/1/5
f 219/4/5 188/4/5 187/4/5
f 220/1/5 191/1/5 190/1/5
f 220/4/5 189/4/5 219/4/5
f 220/1/5 190/1/5 189/1/5
f 221/4/5 193/4/5 192/4/5
f 221/1/5 191/1/5 220/1/5
f 221/4/5 192/4/5 191/4/5
f 222/1/5 195/1/5 194/1/5
f 222/4/5 193/4/5 221/4/5
f 222/1/5 194/1/5 193/1/5
f 223/4/5 197/4/5 196/4/5
f 223/1/5 195/1/5 222/1/5
f 223/4/5 196/4/5 195/4/5
f 224/1/5 199/1/5 198/1/5
f 224/4/5 197/4/5 223/4/5
f 224/1/5 198/1/5 197/1/5
f 225/4/5 201/4/5 200/4/5
f 225/1/5 199/1/5 224/1/5
f 225/4/5 200/4/5 199/4/5
f 226/1/5 203/1/5 202/1/5
f 226/4/5 201/4/5 225/4/5
f 226/1/5 202/1/5 201/1/5
f 227/4/5 205/4/5 204/4/5
f 227/1/5 203/1/5 226/1/5
f 227/4/5 204/4/5 203/4/5
f 228/1/5 206/1/5 205/1/5
f 228/4/5 205/4/5 227/4/5
f 228/1/5 207/1/5 206/1/5
f 229/4/5 208/4/5 207/4/5
f 229/1/5 207/1/5 228/1/5
f 229/4/5 209/4/5 208/4/5
f 230/1/5 169/1/5 209/1/5
f 230/4/5 209/4/5 229/4/5
f 231/1/5 169/1/5 230/1/5
f 232/3/5 224/3/5 223/3/5
f 232/3/5 226/3/5 225/3/5
f 232/3/5 231/3/5 230/3/5
f 232/3/5 230/3/5 229/3/5
f 232/3/5 225/3/5 224/3/5
f 232/3/5 228/3/5 227/3/5
f 232/3/5 227/3/5 226/3/5
f 232/3/5 229/3/5 228/3/5
f 232/3/5 223/3/5 222/3/5
f 232/3/5 222/3/5 221/3/5
f 232/3/5 221/3/5 220/3/5
f 232/3/5 220/3/5 219/3/5
f 232/3/5 219/3/5 218/3/5
f 232/3/5 218/3/5 217/3/5
f 232/3/5 217/3/5 216/3/5
f 232/3/5 216/3/5 215/3/5
f 232/3/5 215/3/5 214/3/5
f 232/3/5 214/3/5 213/3/5
f 232/3/5 213/3/5 212/3/5
f 232/3/5 212/3/5 211/3/5
f 232/3/5 211/3/5 210/3/5
f 233/3/5 231/3/5 232/3/5
f 234/2/5 233/2/5 232/2/5
f 235/2/5 233/2/5 234/2/5
f 236/1/6 237/1/6 257/1/6
f 257/1/6 237/1/6 258/1/6
f 237/4/6 238/4/6 259/4/6
f 258/1/6 237/1/6 259/1/6
f 259/4/6 238/4/6 260/4/6
f 238/1/6 239/1/6 261/1/6
f 260/4/6 238/4/6 261/4/6
f 261/1/6 239/1/6 262/1/6
f 239/4/6 240/4/6 263/4/6
f 262/1/6 239/1/6 263/1/6
f 263/4/6 240/4/6 264/4/6
f 240/1/6 241/1/6 265/1/6
f 264/4/6 240/4/6 265/4/6
f 265/1/6 241/1/6 266/1/6
f 241/4/6 242/4/6 267/4/6
f 266/1/6 241/1/6 267/1/6
f 267/4/6 242/4/6 268/4/6
f 242/1/6 243/1/6 269/1/6
f 268/4/6 242/4/6 269/4/6
f 269/1/6 243/1/6 270/1/6
f 243/4/6 244/4/6 271/4/6
f 270/1/6 243/1/6 271/1/6
f 271/4/6 244/4/6 272/4/6
f 244/1/6 245/1/6 273/1/6
f 272/4/6 244/4/6 273/4/6
f 273/1/6 245/1/6 274/1/6
f 245/4/6 246/4/6 275/4/6
f 274/1/6 245/1/6 275/1/6
f 275/4/6 246/4/6 276/4/6
f 246/1/6 247/1/6 277/1/6
f 276/4/6 246/4/6 277/4/6
f 277/1/6 247/1/6 278/1/6
f 247/4/6 248/4/6 279/4/6
f 278/1/6 247/1/6 279/1/6
f 279/4/6 248/4/6 280/4/6
f 248/1/6 249/1/6 281/1/6
f 280/4/6 248/4/6 281/4/6
f 281/1/6 249/1/6 282/1/6
f 249/4/6 250/4/6 283/4/6
f 282/1/6 249/1/6 283/1/6
f 283/4/6 250/4/6 284/4/6
f 250/1/6 251/1/6 285/1/6
f 284/4/6 250/4/6 285/4/6
f 285/1/6 251/1/6 286/1/6
f 251/4/6 252/4/6 287/4/6
f 286/1/6 251/1/6 287/1/6
f 287/4/6 252/4/6 288/4/6
f 252/1/6 253/1/6 289/1/6
f 288/4/6 252/4/6 289/4/6
f 289/1/6 253/1/6 290/1/6
f 253/4/6 254/4/6 291/4/6
f 290/1/6 253/1/6 291/1/6
f 291/4/6 254/4/6 292/4/6
f 254/1/6 255/1/6 293/1/6
f 292/4/6 254/4/6 293/4/6
f 293/1/6 255/1/6 294/1/6
f 255/4/6 256/4/6 295/4/6
f 294/1/6 255/1/6 295/1/6
f 295/4/6 256/4/6 296/4/6
f 257/4/6 258/4/6 297/4/6
f 259/1/6 260/1/6 297/1/6
f 258/1/6 259/1/6 297/1/6
f 297/1/6 260/1/6 298/1/6
f 261/4/6 262/4/6 299/4/6
f 298/1/6 260/1/6 299/1/6
f 260/4/6 261/4/6 299/4/6
f 299/4/6 262/4/6 300/4/6
f 263/1/6 264/1/6 301/1/6
f 300/4/6 262/4/6 301/4/6
f 262/1/6 263/1/6 301/1/6
f 301/1/6 264/1/6 302/1/6
f 265/4/6 266/4/6 303/4/6
f 302/1/6 264/1/6 303/1/6
f 264/4/6 265/4/6 303/4/6
f 303/4/6 266/4/6 304/4/6
f 267/1/6 268/1/6 305/1/6
f 304/4/6 266/4/6 305/4/6
f 266/1/6 267/1/6 305/1/6
f 305/1/6 268/1/6 306/1/6
f 269/4/6 270/4/6 307/4/6
f 306/1/6 268/1/6 307/1/6
f 268/4/6 269/4/6 307/4/6
f 307/4/6 270/4/6 308/4/6
f 271/1/6 272/1/6 309/1/6
f 308/4/6 270/4/6 309/4/6
f 270/1/6 271/1/6 309/1/6
f 309/1/6 272/1/6 310/1/6
f 273/4/6 274/4/6 311/4/6
f 310/1/6 272/1/6 311/1/6
f 272/4/6 273/4/6 311/4/6
f 311/4/6 274/4/6 312/4/6
f 275/1/6 276/1/6 313/1/6
f 312/4/6 274/4/6 313/4/6
f 274/1/6 275/1/6 313/1/6
f 313/1/6 276/1/6 314/1/6
f 277/4/6 278/4/6 315/4/6
f 314/1/6 276/1/6 315/1/6
f 276/4/6 277/4/6 315/4/6
f 315/4/6 278/4/6 316/4/6
f 279/1/6 280/1/6 317/1/6
f 316/4/6 278/4/6 317/4/6
f 278/1/6 279/1/6 317/1/6
f 317/1/6 280/1/6 318/1/6
f 281/4/6 282/4/6 319/4/6
f 318/1/6 280/1/6 319/1/6
f 280/4/6 281/4/6 319/4/6
f 319/4/6 282/4/6 320/4/6
f 283/1/6 284/1/6 321/1/6
f 320/4/6 282/4/6 321/4/6
f 282/1/6 283/1/6 321/1/6
f 321/1/6 284/1/6 322/1/6
f 285/4/6 286/4/6 323/4/6
f 322/1/6 284/1/6 323/1/6
f 284/4/6 285/4/6 323/4/6
f 323/4/6 286/4/6 324/4/6
f 287/1/6 288/1/6 325/1/6
f 324/4/6 286/4/6 325/4/6
f 286/1/6 287/1/6 325/1/6
f 325/1/6 288/1/6 326/1/6
f 289/4/6 290/4/6 327/4/6
f 326/1/6 288/1/6 327/1/6
f 288/4/6 289/4/6 327/4/6
f 327/4/6 290/4/6 328/4/6
f 291/1/6 292/1/6 329/1/6
f 328/4/6 290/4/6 329/4/6
f 290/1/6 291/1/6 329/1/6
f 329/1/6 292/1/6 330/1/6
f 293/4/6 294/4/6 331/4/6
f 330/1/6 292/1/6 331/1/6
f 292/4/6 293/4/6 331/4/6
f 331/4/6 294/4/6 332/4/6
f 295/1/6 296/1/6 333/1/6
f 332/4/6 294/4/6 333/4/6
f 294/1/6 295/1/6 333/1/6
f 333/1/6 296/1/6 334/1/6
f 296/4/6 256/4/6 335/4/6
f 334/1/6 296/1/6 335/1/6
f 335/4/6 256/4/6 336/4/6
f 297/4/6 298/4/6 337/4/6
f 257/4/6 297/4/6 337/4/6
f 337/4/6 298/4/6 338/4/6
f 299/1/6 300/1/6 339/1/6
f 338/4/6 298/4/6 339/4/6
f 298/1/6 299/1/6 339/1/6
f 339/1/6 300/1/6 340/1/6
f 301/4/6 302/4/6 341/4/6
f 340/1/6 300/1/6 341/1/6
f 300/4/6 301/4/6 341/4/6
f 341/4/6 302/4/6 342/4/6
f 303/1/6 304/1/6 343/1/6
f 342/4/6 302/4/6 343/4/6
f 302/1/6 303/1/6 343/1/6
f 343/1/6 304/1/6 344/1/6
f 305/4/6 306/4/6 345/4/6
f 344/1/6 304/1/6 345/1/6
f 304/4/6 305/4/6 345/4/6
f 345/4/6 306/4/6 346/4/6
f 307/1/6 308/1/6 347/1/6
f 346/4/6 306/4/6 347/4/6
f 306/1/6 307/1/6 347/1/6
f 347/1/6 308/1/6 348/1/6
f 309/4/6 310/4/6 349/4/6
f 348/1/6 308/1/6 349/1/6
f 308/4/6 309/4/6 349/4/6
f 349/4/6 310/4/6 350/4/6
f 311/1/6 312/1/6 351/1/6
f 350/4/6 310/4/6 351/4/6
f 310/1/6 311/1/6 351/1/6
f 351/1/6 312/1/6 352/1/6
f 313/4/6 314/4/6 353/4/6
f 352/1/6 312/1/6 353/1/6
f 312/4/6 313/4/6 353/4/6
f 353/4/6 314/4/6 354/4/6
f 315/1/6 316/1/6 355/1/6
f 354/4/6 314/4/6 355/4/6
f 314/1/6 315/1/6 355/1/6
f 355/1/6 316/1/6 356/1/6
f 317/4/6 318/4/6 357/4/6
f 356/1/6 316/1/6 357/1/6
f 316/4/6 317/4/6 357/4/6
f 357/4/6 318/4/6 358/4/6
f 319/1/6 320/1/6 359/1/6
f 358/4/6 318/4/6 359/4/6
f 318/1/6 319/1/6 359/1/6
f 359/1/6 320/1/6 360/1/6
f 321/4/6 322/4/6 361/4/6
f 360/1/6 320/1/6 361/1/6
f 320/4/6 321/4/6 361/4/6
f 361/4/6 322/4/6 362/4/6
f 323/1/6 324/1/6 363/1/6
f 362/4/6 322/4/6 363/4/6
f 322/1/6 323/1/6 363/1/6
f 363/1/6 324/1/6 364/1/6
f 325/4/6 326/4/6 365/4/6
f 364/1/6 324/1/6 365/1/6
f 324/4/6 325/4/6 365/4/6
f 365/4/6 326/4/6 366/4/6
f 327/1/6 328/1/6 367/1/6
f 366/4/6 326/4/6 367/4/6
f 326/1/6 327/1/6 367/1/6
f 367/1/6 328/1/6 368/1/6
f 329/4/6 330/4/6 369/4/6
f 368/1/6 328/1/6 369/1/6
f 328/4/6 329/4/6 369/4/6
f 369/4/6 330/4/6 370/4/6
f 331/1/6 332/1/6 371/1/6
f 370/4/6 330/4/6 371/4/6
f 330/1/6 331/1/6 371/1/6
f 371/1/6 332/1/6 372/1/6
f 333/4/6 334/4/6 373/4/6
f 372/1/6 332/1/6 373/1/6
f 332/4/6 333/4/6 373/4/6
f 373/4/6 334/4/6 374/4/6
f 335/1/6 336/1/6 375/1/6
f 374/4/6 334/4/6 375/4/6
f 334/1/6 335/1/6 375/1/6
f 375/1/6 336/1/6 376/1/6
f 337/1/6 338/1/6 377/1/6
f 339/4/6 340/4/6 378/4/6
f 377/1/6 338/1/6 378/1/6
f 338/4/6 339/4/6 378/4/6
f 341/1/6 342/1/6 379/1/6
f 378/4/6 340/4/6 379/4/6
f 340/1/6 341/1/6 379/1/6
f 343/4/6 344/4/6 380/4/6
f 379/1/6 342/1/6 380/1/6
f 342/4/6 343/4/6 380/4/6
f 345/1/6 346/1/6 381/1/6
f 380/4/6 344/4/6 381/4/6
f 344/1/6 345/1/6 381/1/6
f 347/4/6 348/4/6 382/4/6
f 381/1/6 346/1/6 382/1/6
f 346/4/6 347/4/6 382/4/6
f 349/1/6 350/1/6 383/1/6
f 382/4/6 348/4/6 383/4/6
f 348/1/6 349/1/6 383/1/6
f 351/4/6 352/4/6 384/4/6
f 383/1/6 350/1/6 384/1/6
f 350/4/6 351/4/6 384/4/6
f 353/1/6 354/1/6 385/1/6
f 384/4/6 352/4/6 385/4/6
f 352/1/6 353/1/6 385/1/6
f 355/4/6 356/4/6 386/4/6
f 385/1/6 354/1/6 386/1/6
f 354/4/6 355/4/6 386/4/6
f 357/1/6 358/1/6 387/1/6
f 386/4/6 356/4/6 387/4/6
f 356/1/6 357/1/6 387/1/6
f 359/4/6 360/4/6 388/4/6
f 387/1/6 358/1/6 388/1/6
f 358/4/6 359/4/6 388/4/6
f 361/1/6 362/1/6 389/1/6
f 388/4/6 360/4/6 389/4/6
f 360/1/6 361/1/6 389/1/6
f 363/4/6 364/4/6 390/4/6
f 389/1/6 362/1/6 390/1/6
f 362/4/6 363/4/6 390/4/6
f 365/1/6 366/1/6 391/1/6
f 390/4/6 364/4/6 391/4/6
f 364/1/6 365/1/6 391/1/6
f 367/4/6 368/4/6 392/4/6
f 391/1/6 366/1/6 392/1/6
f 366/4/6 367/4/6 392/4/6
f 369/1/6 370/1/6 393/1/6
f 392/4/6 368/4/6 393/4/6
f 368/1/6 369/1/6 393/1/6
f 371/4/6 372/4/6 394/4/6
f 393/1/6 370/1/6 394/1/6
f 370/4/6 371/4/6 394/4/6
f 372/1/6 373/1/6 395/1/6
f 394/4/6 372/4/6 395/4/6
f 373/1/6 374/1/6 395/1/6
f 374/4/6 375/4/6 396/4/6
f 395/1/6 374/1/6 396/1/6
f 375/4/6 376/4/6 396/4/6
f 376/1/6 336/1/6 397/1/6
f 396/4/6 376/4/6 397/4/6
f 397/1/6 336/1/6 398/1/6
f 390/3/6 391/3/6 399/3/6
f 392/3/6 393/3/6 399/3/6
f 397/3/6 398/3/6 399/3/6
f 396/3/6 397/3/6 399/3/6
f 391/3/6 392/3/6 399/3/6
f 394/3/6 395/3/6 399/3/6
f 393/3/6 394/3/6 399/3/6
f 395/3/6 396/3/6 399/3/6
f 389/3/6 390/3/6 399/3/6
f 388/3/6 389/3/6 399/3/6
f 387/3/6 388/3/6 399/3/6
f 386/3/6 387/3/6 399/3/6
f 385/3/6 386/3/6 399/3/6
f 384/3/6 385/3/6 399/3/6
f 383/3/6 384/3/6 399/3/6
f 382/3/6 383/3/6 399/3/6
f 381/3/6 382/3/6 399/3/6
f 380/3/6 381/3/6 399/3/6
f 379/3/6 380/3/6 399/3/6
f 378/3/6 379/3/6 399/3/6
f 377/3/6 378/3/6 399/3/6
f 399/3/6 398/3/6 400/3/6
f 399/2/6 400/2/6 401/2/6
f 401/2/6 400/2/6 402/2/6
